<?xml version="1.0" encoding="UTF-8" standalone="no"?>
<svg
   height="128"
   viewBox="0 0 128 128"
   width="128"
   version="1.1"
   id="svg1"
   sodipodi:docname="128.svg"
   inkscape:version="1.4 (e7c3feb100, 2024-10-09)"
   xmlns:inkscape="http://www.inkscape.org/namespaces/inkscape"
   xmlns:sodipodi="http://sodipodi.sourceforge.net/DTD/sodipodi-0.dtd"
   xmlns:xlink="http://www.w3.org/1999/xlink"
   xmlns="http://www.w3.org/2000/svg"
   xmlns:svg="http://www.w3.org/2000/svg">
  <defs
     id="defs1">
    <linearGradient
       id="linearGradient2"
       inkscape:collect="always">
      <stop
         style="stop-color:#00ffff;stop-opacity:1"
         offset="0"
         id="stop2" />
      <stop
         style="stop-color:#ffffff;stop-opacity:1"
         offset="1"
         id="stop3" />
    </linearGradient>
    <linearGradient
       inkscape:collect="always"
       xlink:href="#linearGradient2"
       id="linearGradient3"
       x1="196.80772"
       y1="-42.776573"
       x2="64"
       y2="80"
       gradientUnits="userSpaceOnUse" />
  </defs>
  <sodipodi:namedview
     id="namedview1"
     pagecolor="#505050"
     bordercolor="#ffffff"
     borderopacity="1"
     inkscape:showpageshadow="0"
     inkscape:pageopacity="0"
     inkscape:pagecheckerboard="1"
     inkscape:deskcolor="#505050"
     inkscape:zoom="6.3971067"
     inkscape:cx="99.029144"
     inkscape:cy="69.719019"
     inkscape:window-width="2560"
     inkscape:window-height="1371"
     inkscape:window-x="0"
     inkscape:window-y="0"
     inkscape:window-maximized="1"
     inkscape:current-layer="svg1" />
  <path
     d="m 8,16 c -4.437504,0 -8,3.562496 -8,8 v 80 c 0,4.4375 3.562496,8 8,8 h 112 c 4.4375,0 8,-3.5625 8,-8 V 24 c 0,-4.437504 -3.5625,-8 -8,-8 z m 10,16 h 12 c 1.125,0 2,0.906248 2,2 v 12 c 0,1.093752 -0.875,2 -2,2 H 18 c -1.093752,0 -2,-0.906248 -2,-2 V 34 c 0,-1.093752 0.906248,-2 2,-2 z m 24,0 h 12 c 1.125002,0 2,0.906248 2,2 v 12 c 0,1.093752 -0.874998,2 -2,2 H 42 c -1.093752,0 -2,-0.906248 -2,-2 V 34 c 0,-1.093752 0.906248,-2 2,-2 z m 24,0 h 12 c 1.125006,0 2,0.906248 2,2 v 12 c 0,1.093752 -0.874994,2 -2,2 H 66 c -1.09375,0 -2,-0.906248 -2,-2 V 34 c 0,-1.093752 0.90625,-2 2,-2 z m 24,0 h 12 c 1.12499,0 2,0.906248 2,2 v 12 c 0,1.093752 -0.87501,2 -2,2 H 90 c -1.093758,0 -2,-0.906248 -2,-2 V 34 c 0,-1.093752 0.906242,-2 2,-2 z M 26,56 h 12 c 1.125,0 2,0.906242 2,2 v 12 c 0,1.09375 -0.875,2 -2,2 H 26 c -1.093752,0 -2,-0.90625 -2,-2 V 58 c 0,-1.093758 0.906248,-2 2,-2 z m 24,0 h 12 c 1.125002,0 2,0.906242 2,2 v 12 c 0,1.09375 -0.874998,2 -2,2 H 50 c -1.093752,0 -2,-0.90625 -2,-2 V 58 c 0,-1.093758 0.906248,-2 2,-2 z m 24,0 h 12 c 1.124994,0 2,0.906242 2,2 v 12 c 0,1.09375 -0.875006,2 -2,2 H 74 c -1.09375,0 -2,-0.90625 -2,-2 V 58 c 0,-1.093758 0.90625,-2 2,-2 z m 24,0 h 12 c 1.12499,0 2,0.906242 2,2 v 12 c 0,1.09375 -0.87501,2 -2,2 H 98 c -1.093758,0 -2,-0.90625 -2,-2 V 58 c 0,-1.093758 0.906242,-2 2,-2 z M 18,80 h 12 c 1.125,0 2,0.90625 2,2 v 12 c 0,1.09375 -0.875,2 -2,2 H 18 c -1.093752,0 -2,-0.90625 -2,-2 V 82 c 0,-1.09375 0.906248,-2 2,-2 z m 24,0 h 44 c 1.124994,0 2,0.90625 2,2 v 12 c 0,1.09375 -0.875006,2 -2,2 H 42 c -1.093752,0 -2,-0.90625 -2,-2 V 82 c 0,-1.09375 0.906248,-2 2,-2 z m 56,0 h 20 c 1.12499,0 2,0.90625 2,2 v 12 c 0,1.09375 -0.87501,2 -2,2 H 98 c -1.093758,0 -2,-0.90625 -2,-2 V 82 c 0,-1.09375 0.906242,-2 2,-2 z m 0,0"
     fill="#222222"
     id="path1"
     style="fill:#ffffff;stroke-width:8" />
  <path
     d="m 8,16 c -4.437504,0 -8,3.562496 -8,8 v 80 c 0,4.4375 3.562496,8 8,8 h 112 c 4.4375,0 8,-3.5625 8,-8 V 24 c 0,-4.437504 -3.5625,-8 -8,-8 z m 10,16 h 12 c 1.125,0 2,0.906248 2,2 v 12 c 0,1.093752 -0.875,2 -2,2 H 18 c -1.093752,0 -2,-0.906248 -2,-2 V 34 c 0,-1.093752 0.906248,-2 2,-2 z m 24,0 h 12 c 1.125002,0 2,0.906248 2,2 v 12 c 0,1.093752 -0.874998,2 -2,2 H 42 c -1.093752,0 -2,-0.906248 -2,-2 V 34 c 0,-1.093752 0.906248,-2 2,-2 z m 24,0 h 12 c 1.125006,0 2,0.906248 2,2 v 12 c 0,1.093752 -0.874994,2 -2,2 H 66 c -1.09375,0 -2,-0.906248 -2,-2 V 34 c 0,-1.093752 0.90625,-2 2,-2 z m 24,0 h 12 c 1.12499,0 2,0.906248 2,2 v 12 c 0,1.093752 -0.87501,2 -2,2 H 90 c -1.093758,0 -2,-0.906248 -2,-2 V 34 c 0,-1.093752 0.906242,-2 2,-2 z M 26,56 h 12 c 1.125,0 2,0.906242 2,2 v 12 c 0,1.09375 -0.875,2 -2,2 H 26 c -1.093752,0 -2,-0.90625 -2,-2 V 58 c 0,-1.093758 0.906248,-2 2,-2 z m 24,0 h 12 c 1.125002,0 2,0.906242 2,2 v 12 c 0,1.09375 -0.874998,2 -2,2 H 50 c -1.093752,0 -2,-0.90625 -2,-2 V 58 c 0,-1.093758 0.906248,-2 2,-2 z m 24,0 h 12 c 1.124994,0 2,0.906242 2,2 v 12 c 0,1.09375 -0.875006,2 -2,2 H 74 c -1.09375,0 -2,-0.90625 -2,-2 V 58 c 0,-1.093758 0.90625,-2 2,-2 z m 24,0 h 12 c 1.12499,0 2,0.906242 2,2 v 12 c 0,1.09375 -0.87501,2 -2,2 H 98 c -1.093758,0 -2,-0.90625 -2,-2 V 58 c 0,-1.093758 0.906242,-2 2,-2 z M 18,80 h 12 c 1.125,0 2,0.90625 2,2 v 12 c 0,1.09375 -0.875,2 -2,2 H 18 c -1.093752,0 -2,-0.90625 -2,-2 V 82 c 0,-1.09375 0.906248,-2 2,-2 z m 24,0 h 44 c 1.124994,0 2,0.90625 2,2 v 12 c 0,1.09375 -0.875006,2 -2,2 H 42 c -1.093752,0 -2,-0.90625 -2,-2 V 82 c 0,-1.09375 0.906248,-2 2,-2 z m 56,0 h 20 c 1.12499,0 2,0.90625 2,2 v 12 c 0,1.09375 -0.87501,2 -2,2 H 98 c -1.093758,0 -2,-0.90625 -2,-2 V 82 c 0,-1.09375 0.906242,-2 2,-2 z m 0,0"
     fill="#222222"
     id="path2"
     style="fill:url(#linearGradient3);stroke-width:8;fill-opacity:1" />
</svg>
