<?xml version="1.0" encoding="UTF-8" standalone="no"?>
<svg
   height="16px"
   viewBox="0 0 16 16"
   width="16px"
   version="1.1"
   id="svg1"
   sodipodi:docname="16.svg"
   inkscape:version="1.4 (e7c3feb100, 2024-10-09)"
   xmlns:inkscape="http://www.inkscape.org/namespaces/inkscape"
   xmlns:sodipodi="http://sodipodi.sourceforge.net/DTD/sodipodi-0.dtd"
   xmlns="http://www.w3.org/2000/svg"
   xmlns:svg="http://www.w3.org/2000/svg">
  <defs
     id="defs1" />
  <sodipodi:namedview
     id="namedview1"
     pagecolor="#505050"
     bordercolor="#ffffff"
     borderopacity="1"
     inkscape:showpageshadow="0"
     inkscape:pageopacity="0"
     inkscape:pagecheckerboard="1"
     inkscape:deskcolor="#505050"
     inkscape:zoom="25.588427"
     inkscape:cx="1.5241265"
     inkscape:cy="10.747046"
     inkscape:window-width="2560"
     inkscape:window-height="1371"
     inkscape:window-x="0"
     inkscape:window-y="0"
     inkscape:window-maximized="1"
     inkscape:current-layer="svg1" />
  <path
     d="m 1 2 c -0.554688 0 -1 0.445312 -1 1 v 10 c 0 0.554688 0.445312 1 1 1 h 14 c 0.554688 0 1 -0.445312 1 -1 v -10 c 0 -0.554688 -0.445312 -1 -1 -1 z m 1.25 2 h 1.5 c 0.140625 0 0.25 0.113281 0.25 0.25 v 1.5 c 0 0.136719 -0.109375 0.25 -0.25 0.25 h -1.5 c -0.136719 0 -0.25 -0.113281 -0.25 -0.25 v -1.5 c 0 -0.136719 0.113281 -0.25 0.25 -0.25 z m 3 0 h 1.5 c 0.140625 0 0.25 0.113281 0.25 0.25 v 1.5 c 0 0.136719 -0.109375 0.25 -0.25 0.25 h -1.5 c -0.136719 0 -0.25 -0.113281 -0.25 -0.25 v -1.5 c 0 -0.136719 0.113281 -0.25 0.25 -0.25 z m 3 0 h 1.5 c 0.140625 0 0.25 0.113281 0.25 0.25 v 1.5 c 0 0.136719 -0.109375 0.25 -0.25 0.25 h -1.5 c -0.136719 0 -0.25 -0.113281 -0.25 -0.25 v -1.5 c 0 -0.136719 0.113281 -0.25 0.25 -0.25 z m 3 0 h 1.5 c 0.140625 0 0.25 0.113281 0.25 0.25 v 1.5 c 0 0.136719 -0.109375 0.25 -0.25 0.25 h -1.5 c -0.136719 0 -0.25 -0.113281 -0.25 -0.25 v -1.5 c 0 -0.136719 0.113281 -0.25 0.25 -0.25 z m -8 3 h 1.5 c 0.140625 0 0.25 0.113281 0.25 0.25 v 1.5 c 0 0.136719 -0.109375 0.25 -0.25 0.25 h -1.5 c -0.136719 0 -0.25 -0.113281 -0.25 -0.25 v -1.5 c 0 -0.136719 0.113281 -0.25 0.25 -0.25 z m 3 0 h 1.5 c 0.140625 0 0.25 0.113281 0.25 0.25 v 1.5 c 0 0.136719 -0.109375 0.25 -0.25 0.25 h -1.5 c -0.136719 0 -0.25 -0.113281 -0.25 -0.25 v -1.5 c 0 -0.136719 0.113281 -0.25 0.25 -0.25 z m 3 0 h 1.5 c 0.140625 0 0.25 0.113281 0.25 0.25 v 1.5 c 0 0.136719 -0.109375 0.25 -0.25 0.25 h -1.5 c -0.136719 0 -0.25 -0.113281 -0.25 -0.25 v -1.5 c 0 -0.136719 0.113281 -0.25 0.25 -0.25 z m 3 0 h 1.5 c 0.140625 0 0.25 0.113281 0.25 0.25 v 1.5 c 0 0.136719 -0.109375 0.25 -0.25 0.25 h -1.5 c -0.136719 0 -0.25 -0.113281 -0.25 -0.25 v -1.5 c 0 -0.136719 0.113281 -0.25 0.25 -0.25 z m -10 3 h 1.5 c 0.140625 0 0.25 0.113281 0.25 0.25 v 1.5 c 0 0.136719 -0.109375 0.25 -0.25 0.25 h -1.5 c -0.136719 0 -0.25 -0.113281 -0.25 -0.25 v -1.5 c 0 -0.136719 0.113281 -0.25 0.25 -0.25 z m 3 0 h 5.5 c 0.140625 0 0.25 0.113281 0.25 0.25 v 1.5 c 0 0.136719 -0.109375 0.25 -0.25 0.25 h -5.5 c -0.136719 0 -0.25 -0.113281 -0.25 -0.25 v -1.5 c 0 -0.136719 0.113281 -0.25 0.25 -0.25 z m 7 0 h 2.5 c 0.140625 0 0.25 0.113281 0.25 0.25 v 1.5 c 0 0.136719 -0.109375 0.25 -0.25 0.25 h -2.5 c -0.136719 0 -0.25 -0.113281 -0.25 -0.25 v -1.5 c 0 -0.136719 0.113281 -0.25 0.25 -0.25 z m 0 0"
     fill="#222222"
     id="path1"
     style="fill:#ffffff" />
</svg>
