<?xml version="1.0" encoding="UTF-8" standalone="no"?>
<svg
   height="24"
   viewBox="0 0 24 24"
   width="24"
   version="1.1"
   id="svg1"
   sodipodi:docname="24.svg"
   inkscape:version="1.4 (e7c3feb100, 2024-10-09)"
   xmlns:inkscape="http://www.inkscape.org/namespaces/inkscape"
   xmlns:sodipodi="http://sodipodi.sourceforge.net/DTD/sodipodi-0.dtd"
   xmlns="http://www.w3.org/2000/svg"
   xmlns:svg="http://www.w3.org/2000/svg">
  <defs
     id="defs1" />
  <sodipodi:namedview
     id="namedview1"
     pagecolor="#505050"
     bordercolor="#ffffff"
     borderopacity="1"
     inkscape:showpageshadow="0"
     inkscape:pageopacity="0"
     inkscape:pagecheckerboard="1"
     inkscape:deskcolor="#505050"
     inkscape:zoom="25.588427"
     inkscape:cx="1.5045864"
     inkscape:cy="10.747046"
     inkscape:window-width="2560"
     inkscape:window-height="1371"
     inkscape:window-x="0"
     inkscape:window-y="0"
     inkscape:window-maximized="1"
     inkscape:current-layer="svg1" />
  <path
     d="M 1.5,3 C 0.667968,3 0,3.667968 0,4.5 v 15 C 0,20.332032 0.667968,21 1.5,21 h 21 C 23.332032,21 24,20.332032 24,19.5 V 4.5 C 24,3.667968 23.332032,3 22.5,3 Z m 1.875,3 h 2.25 C 5.8359375,6 6,6.1699215 6,6.375 v 2.25 C 6,8.8300785 5.8359375,9 5.625,9 H 3.375 C 3.1699215,9 3,8.8300785 3,8.625 V 6.375 C 3,6.1699215 3.1699215,6 3.375,6 Z m 4.5,0 h 2.25 C 10.335938,6 10.5,6.1699215 10.5,6.375 v 2.25 C 10.5,8.8300785 10.335938,9 10.125,9 H 7.875 C 7.6699215,9 7.5,8.8300785 7.5,8.625 V 6.375 C 7.5,6.1699215 7.6699215,6 7.875,6 Z m 4.5,0 h 2.25 C 14.835938,6 15,6.1699215 15,6.375 v 2.25 C 15,8.8300785 14.835938,9 14.625,9 h -2.25 C 12.169922,9 12,8.8300785 12,8.625 V 6.375 C 12,6.1699215 12.169922,6 12.375,6 Z m 4.5,0 h 2.25 C 19.335937,6 19.5,6.1699215 19.5,6.375 v 2.25 C 19.5,8.8300785 19.335937,9 19.125,9 h -2.25 C 16.669921,9 16.5,8.8300785 16.5,8.625 V 6.375 C 16.5,6.1699215 16.669921,6 16.875,6 Z m -12,4.5 h 2.25 c 0.2109375,0 0.375,0.169921 0.375,0.375 v 2.25 C 7.5,13.330078 7.3359375,13.5 7.125,13.5 H 4.875 C 4.6699215,13.5 4.5,13.330078 4.5,13.125 v -2.25 C 4.5,10.669921 4.6699215,10.5 4.875,10.5 Z m 4.5,0 h 2.25 c 0.210938,0 0.375,0.169921 0.375,0.375 v 2.25 C 12,13.330078 11.835938,13.5 11.625,13.5 H 9.375 C 9.1699215,13.5 9,13.330078 9,13.125 v -2.25 C 9,10.669921 9.1699215,10.5 9.375,10.5 Z m 4.5,0 h 2.25 c 0.210937,0 0.375,0.169921 0.375,0.375 v 2.25 c 0,0.205078 -0.164063,0.375 -0.375,0.375 h -2.25 C 13.669922,13.5 13.5,13.330078 13.5,13.125 v -2.25 c 0,-0.205079 0.169922,-0.375 0.375,-0.375 z m 4.5,0 h 2.25 c 0.210937,0 0.375,0.169921 0.375,0.375 v 2.25 c 0,0.205078 -0.164063,0.375 -0.375,0.375 h -2.25 C 18.169921,13.5 18,13.330078 18,13.125 v -2.25 C 18,10.669921 18.169921,10.5 18.375,10.5 Z m -15,4.5 h 2.25 C 5.8359375,15 6,15.169922 6,15.375 v 2.25 C 6,17.830078 5.8359375,18 5.625,18 H 3.375 C 3.1699215,18 3,17.830078 3,17.625 v -2.25 C 3,15.169922 3.1699215,15 3.375,15 Z m 4.5,0 h 8.25 c 0.210937,0 0.375,0.169922 0.375,0.375 v 2.25 C 16.5,17.830078 16.335937,18 16.125,18 H 7.875 C 7.6699215,18 7.5,17.830078 7.5,17.625 v -2.25 C 7.5,15.169922 7.6699215,15 7.875,15 Z m 10.5,0 h 3.75 c 0.210937,0 0.375,0.169922 0.375,0.375 v 2.25 C 22.5,17.830078 22.335937,18 22.125,18 h -3.75 C 18.169921,18 18,17.830078 18,17.625 v -2.25 C 18,15.169922 18.169921,15 18.375,15 Z m 0,0"
     fill="#222222"
     id="path1"
     style="fill:#ffffff;stroke-width:1.5" />
</svg>
