<?xml version="1.0" encoding="UTF-8" standalone="no"?>
<svg
   height="32"
   viewBox="0 0 32 32"
   width="32"
   version="1.1"
   id="svg1"
   sodipodi:docname="32.svg"
   inkscape:version="1.4 (e7c3feb100, 2024-10-09)"
   xmlns:inkscape="http://www.inkscape.org/namespaces/inkscape"
   xmlns:sodipodi="http://sodipodi.sourceforge.net/DTD/sodipodi-0.dtd"
   xmlns="http://www.w3.org/2000/svg"
   xmlns:svg="http://www.w3.org/2000/svg">
  <defs
     id="defs1" />
  <sodipodi:namedview
     id="namedview1"
     pagecolor="#505050"
     bordercolor="#ffffff"
     borderopacity="1"
     inkscape:showpageshadow="0"
     inkscape:pageopacity="0"
     inkscape:pagecheckerboard="1"
     inkscape:deskcolor="#505050"
     inkscape:zoom="18.09375"
     inkscape:cx="9.9205527"
     inkscape:cy="21.609672"
     inkscape:window-width="2560"
     inkscape:window-height="1371"
     inkscape:window-x="0"
     inkscape:window-y="0"
     inkscape:window-maximized="1"
     inkscape:current-layer="svg1" />
  <path
     d="M 2,4 C 0.890624,4 0,4.890624 0,6 v 20 c 0,1.109376 0.890624,2 2,2 h 28 c 1.109376,0 2,-0.890624 2,-2 V 6 C 32,4.890624 31.109376,4 30,4 Z m 2.5,4 h 3 C 7.78125,8 8,8.226562 8,8.5 v 3 C 8,11.773438 7.78125,12 7.5,12 h -3 C 4.226562,12 4,11.773438 4,11.5 v -3 C 4,8.226562 4.226562,8 4.5,8 Z m 6,0 h 3 C 13.781251,8 14,8.226562 14,8.5 v 3 c 0,0.273438 -0.218749,0.5 -0.5,0.5 h -3 C 10.226562,12 10,11.773438 10,11.5 v -3 C 10,8.226562 10.226562,8 10.5,8 Z m 6,0 h 3 C 19.781251,8 20,8.226562 20,8.5 v 3 c 0,0.273438 -0.218749,0.5 -0.5,0.5 h -3 C 16.226563,12 16,11.773438 16,11.5 v -3 C 16,8.226562 16.226563,8 16.5,8 Z m 6,0 h 3 C 25.781249,8 26,8.226562 26,8.5 v 3 c 0,0.273438 -0.218751,0.5 -0.5,0.5 h -3 C 22.226561,12 22,11.773438 22,11.5 v -3 C 22,8.226562 22.226561,8 22.5,8 Z m -16,6 h 3 c 0.28125,0 0.5,0.226561 0.5,0.5 v 3 C 10,17.773437 9.78125,18 9.5,18 h -3 C 6.226562,18 6,17.773437 6,17.5 v -3 C 6,14.226561 6.226562,14 6.5,14 Z m 6,0 h 3 c 0.281251,0 0.5,0.226561 0.5,0.5 v 3 c 0,0.273437 -0.218749,0.5 -0.5,0.5 h -3 C 12.226562,18 12,17.773437 12,17.5 v -3 C 12,14.226561 12.226562,14 12.5,14 Z m 6,0 h 3 c 0.281249,0 0.5,0.226561 0.5,0.5 v 3 c 0,0.273437 -0.218751,0.5 -0.5,0.5 h -3 C 18.226563,18 18,17.773437 18,17.5 v -3 C 18,14.226561 18.226563,14 18.5,14 Z m 6,0 h 3 c 0.281249,0 0.5,0.226561 0.5,0.5 v 3 c 0,0.273437 -0.218751,0.5 -0.5,0.5 h -3 C 24.226561,18 24,17.773437 24,17.5 v -3 C 24,14.226561 24.226561,14 24.5,14 Z m -20,6 h 3 C 7.78125,20 8,20.226563 8,20.5 v 3 C 8,23.773437 7.78125,24 7.5,24 h -3 C 4.226562,24 4,23.773437 4,23.5 v -3 C 4,20.226563 4.226562,20 4.5,20 Z m 6,0 h 11 c 0.281249,0 0.5,0.226563 0.5,0.5 v 3 c 0,0.273437 -0.218751,0.5 -0.5,0.5 h -11 C 10.226562,24 10,23.773437 10,23.5 v -3 C 10,20.226563 10.226562,20 10.5,20 Z m 14,0 h 5 c 0.281249,0 0.5,0.226563 0.5,0.5 v 3 c 0,0.273437 -0.218751,0.5 -0.5,0.5 h -5 C 24.226561,24 24,23.773437 24,23.5 v -3 C 24,20.226563 24.226561,20 24.5,20 Z m 0,0"
     fill="#222222"
     id="path1"
     style="fill:#ffffff;stroke-width:2" />
</svg>
