<?xml version="1.0" encoding="UTF-8" standalone="no"?>
<svg
   height="48"
   viewBox="0 0 48 48"
   width="48"
   version="1.1"
   id="svg1"
   sodipodi:docname="48.svg"
   inkscape:version="1.4 (e7c3feb100, 2024-10-09)"
   xmlns:inkscape="http://www.inkscape.org/namespaces/inkscape"
   xmlns:sodipodi="http://sodipodi.sourceforge.net/DTD/sodipodi-0.dtd"
   xmlns="http://www.w3.org/2000/svg"
   xmlns:svg="http://www.w3.org/2000/svg">
  <defs
     id="defs1" />
  <sodipodi:namedview
     id="namedview1"
     pagecolor="#505050"
     bordercolor="#ffffff"
     borderopacity="1"
     inkscape:showpageshadow="0"
     inkscape:pageopacity="0"
     inkscape:pagecheckerboard="1"
     inkscape:deskcolor="#505050"
     inkscape:zoom="12.794213"
     inkscape:cx="22.392936"
     inkscape:cy="30.795172"
     inkscape:window-width="2560"
     inkscape:window-height="1371"
     inkscape:window-x="0"
     inkscape:window-y="0"
     inkscape:window-maximized="1"
     inkscape:current-layer="svg1" />
  <path
     d="M 3,6 C 1.335936,6 0,7.335936 0,9 v 30 c 0,1.664064 1.335936,3 3,3 h 42 c 1.664064,0 3,-1.335936 3,-3 V 9 C 48,7.335936 46.664064,6 45,6 Z m 3.75,6 h 4.5 c 0.421875,0 0.75,0.339843 0.75,0.75 v 4.5 C 12,17.660157 11.671875,18 11.25,18 H 6.75 C 6.339843,18 6,17.660157 6,17.25 v -4.5 C 6,12.339843 6.339843,12 6.75,12 Z m 9,0 h 4.5 c 0.421876,0 0.75,0.339843 0.75,0.75 v 4.5 C 21,17.660157 20.671876,18 20.25,18 h -4.5 C 15.339843,18 15,17.660157 15,17.25 v -4.5 C 15,12.339843 15.339843,12 15.75,12 Z m 9,0 h 4.5 c 0.421877,0 0.75,0.339843 0.75,0.75 v 4.5 C 30,17.660157 29.671877,18 29.25,18 h -4.5 C 24.339844,18 24,17.660157 24,17.25 v -4.5 C 24,12.339843 24.339844,12 24.75,12 Z m 9,0 h 4.5 c 0.421873,0 0.75,0.339843 0.75,0.75 v 4.5 C 39,17.660157 38.671873,18 38.25,18 h -4.5 C 33.339841,18 33,17.660157 33,17.25 v -4.5 C 33,12.339843 33.339841,12 33.75,12 Z m -24,9 h 4.5 c 0.421875,0 0.75,0.339841 0.75,0.75 v 4.5 C 15,26.660156 14.671875,27 14.25,27 H 9.75 C 9.339843,27 9,26.660156 9,26.25 v -4.5 C 9,21.339841 9.339843,21 9.75,21 Z m 9,0 h 4.5 c 0.421876,0 0.75,0.339841 0.75,0.75 v 4.5 C 24,26.660156 23.671876,27 23.25,27 h -4.5 C 18.339843,27 18,26.660156 18,26.25 v -4.5 C 18,21.339841 18.339843,21 18.75,21 Z m 9,0 h 4.5 c 0.421873,0 0.75,0.339841 0.75,0.75 v 4.5 C 33,26.660156 32.671873,27 32.25,27 h -4.5 C 27.339844,27 27,26.660156 27,26.25 v -4.5 C 27,21.339841 27.339844,21 27.75,21 Z m 9,0 h 4.5 c 0.421873,0 0.75,0.339841 0.75,0.75 v 4.5 C 42,26.660156 41.671873,27 41.25,27 h -4.5 C 36.339841,27 36,26.660156 36,26.25 v -4.5 C 36,21.339841 36.339841,21 36.75,21 Z m -30,9 h 4.5 c 0.421875,0 0.75,0.339844 0.75,0.75 v 4.5 C 12,35.660156 11.671875,36 11.25,36 H 6.75 C 6.339843,36 6,35.660156 6,35.25 v -4.5 C 6,30.339844 6.339843,30 6.75,30 Z m 9,0 h 16.5 c 0.421873,0 0.75,0.339844 0.75,0.75 v 4.5 C 33,35.660156 32.671873,36 32.25,36 H 15.75 C 15.339843,36 15,35.660156 15,35.25 v -4.5 C 15,30.339844 15.339843,30 15.75,30 Z m 21,0 h 7.5 c 0.421873,0 0.75,0.339844 0.75,0.75 v 4.5 C 45,35.660156 44.671873,36 44.25,36 h -7.5 C 36.339841,36 36,35.660156 36,35.25 v -4.5 C 36,30.339844 36.339841,30 36.75,30 Z m 0,0"
     fill="#222222"
     id="path1"
     style="fill:#ffffff;stroke-width:3" />
</svg>
