<?xml version="1.0" encoding="UTF-8" standalone="no"?>
<svg
   height="64"
   viewBox="0 0 64 64"
   width="64"
   version="1.1"
   id="svg1"
   sodipodi:docname="64.svg"
   inkscape:version="1.4 (e7c3feb100, 2024-10-09)"
   xmlns:inkscape="http://www.inkscape.org/namespaces/inkscape"
   xmlns:sodipodi="http://sodipodi.sourceforge.net/DTD/sodipodi-0.dtd"
   xmlns="http://www.w3.org/2000/svg"
   xmlns:svg="http://www.w3.org/2000/svg">
  <defs
     id="defs1" />
  <sodipodi:namedview
     id="namedview1"
     pagecolor="#505050"
     bordercolor="#ffffff"
     borderopacity="1"
     inkscape:showpageshadow="0"
     inkscape:pageopacity="0"
     inkscape:pagecheckerboard="1"
     inkscape:deskcolor="#505050"
     inkscape:zoom="12.794213"
     inkscape:cx="22.392936"
     inkscape:cy="30.795172"
     inkscape:window-width="2560"
     inkscape:window-height="1371"
     inkscape:window-x="0"
     inkscape:window-y="0"
     inkscape:window-maximized="1"
     inkscape:current-layer="svg1" />
  <path
     d="M 4,8 C 1.781248,8 0,9.781248 0,12 v 40 c 0,2.218752 1.781248,4 4,4 h 56 c 2.218752,0 4,-1.781248 4,-4 V 12 C 64,9.781248 62.218752,8 60,8 Z m 5,8 h 6 c 0.5625,0 1,0.453124 1,1 v 6 c 0,0.546876 -0.4375,1 -1,1 H 9 C 8.453124,24 8,23.546876 8,23 v -6 c 0,-0.546876 0.453124,-1 1,-1 z m 12,0 h 6 c 0.562501,0 1,0.453124 1,1 v 6 c 0,0.546876 -0.437499,1 -1,1 h -6 c -0.546876,0 -1,-0.453124 -1,-1 v -6 c 0,-0.546876 0.453124,-1 1,-1 z m 12,0 h 6 c 0.562503,0 1,0.453124 1,1 v 6 c 0,0.546876 -0.437497,1 -1,1 h -6 c -0.546875,0 -1,-0.453124 -1,-1 v -6 c 0,-0.546876 0.453125,-1 1,-1 z m 12,0 h 6 c 0.562497,0 1,0.453124 1,1 v 6 c 0,0.546876 -0.437503,1 -1,1 h -6 c -0.546879,0 -1,-0.453124 -1,-1 v -6 c 0,-0.546876 0.453121,-1 1,-1 z M 13,28 h 6 c 0.5625,0 1,0.453121 1,1 v 6 c 0,0.546875 -0.4375,1 -1,1 h -6 c -0.546876,0 -1,-0.453125 -1,-1 v -6 c 0,-0.546879 0.453124,-1 1,-1 z m 12,0 h 6 c 0.562501,0 1,0.453121 1,1 v 6 c 0,0.546875 -0.437499,1 -1,1 h -6 c -0.546876,0 -1,-0.453125 -1,-1 v -6 c 0,-0.546879 0.453124,-1 1,-1 z m 12,0 h 6 c 0.562497,0 1,0.453121 1,1 v 6 c 0,0.546875 -0.437503,1 -1,1 h -6 c -0.546875,0 -1,-0.453125 -1,-1 v -6 c 0,-0.546879 0.453125,-1 1,-1 z m 12,0 h 6 c 0.562497,0 1,0.453121 1,1 v 6 c 0,0.546875 -0.437503,1 -1,1 h -6 c -0.546879,0 -1,-0.453125 -1,-1 v -6 c 0,-0.546879 0.453121,-1 1,-1 z M 9,40 h 6 c 0.5625,0 1,0.453125 1,1 v 6 c 0,0.546875 -0.4375,1 -1,1 H 9 C 8.453124,48 8,47.546875 8,47 v -6 c 0,-0.546875 0.453124,-1 1,-1 z m 12,0 h 22 c 0.562497,0 1,0.453125 1,1 v 6 c 0,0.546875 -0.437503,1 -1,1 H 21 c -0.546876,0 -1,-0.453125 -1,-1 v -6 c 0,-0.546875 0.453124,-1 1,-1 z m 28,0 h 10 c 0.562497,0 1,0.453125 1,1 v 6 c 0,0.546875 -0.437503,1 -1,1 H 49 c -0.546879,0 -1,-0.453125 -1,-1 v -6 c 0,-0.546875 0.453121,-1 1,-1 z m 0,0"
     fill="#222222"
     id="path1"
     style="fill:#ffffff;stroke-width:4" />
</svg>
